<?xml version="1.0" encoding="utf-8"?>
<!-- Generator: Adobe Illustrator 22.1.0, SVG Export Plug-In . SVG Version: 6.00 Build 0)  -->
<svg version="1.1" id="Layer_1" xmlns="http://www.w3.org/2000/svg" xmlns:xlink="http://www.w3.org/1999/xlink" x="0px" y="0px"
	 viewBox="0 0 283.5 153.9" style="enable-background:new 0 0 283.5 153.9;" xml:space="preserve">
<g fill="#75FB9A">
	<path d="M244.3,89.2l-31.7-10.6c-0.6-0.3-1.3-0.4-2.1-0.4c-3.2,0-5,1.8-5,5c0,2.5,1.3,4.2,3.6,4.8l25.3,8.4l0.3,0.2
		c1.3,0.5,2,1.5,2,3c0,0.1,0,0.2-0.1,0.6c-2,6.5-5.8,11.9-11.3,16c-5.6,4.2-12,6.4-19.1,6.4c-8.8,0-16.3-3.2-22.4-9.4
		c0,0-4.9-5.1-6.5-8.9l0.1,15.3c8.1,8,17.5,12.7,28.8,12.7c10.9,0,20.4-3.7,28.2-11.1c7.9-7.4,12.4-16.5,13.3-27.2l0-0.2
		C247.7,91.5,246.5,89.9,244.3,89.2z"/>
	<path d="M184.3,26.6c6.8-5.4,14.7-7.6,23.4-6.5c9.8,1.2,17.5,7,22.8,17.1c2.7,5.2,4.4,10.3,5,15.2c0.2,1.2,1.4,3.4,4.6,3.4
		c0.1,0,0.3,0,0.4,0c3.4-0.2,4.5-2.6,4.6-4c-0.1-10.4-3.5-19.6-10.1-27.3c-6.9-8-15.7-12.7-26.2-14c-11.7-1.5-22,1.3-30.6,8.4
		c-10.7,8.7-13.6,18.4-13.7,18.8l-0.5,1.8c6-3.9,9.7,1.2,9.7,1.2l0.6-1.4C176.3,34.4,179.7,30.1,184.3,26.6z"/>
	<path d="M260.3,107.9c0,3.4,1.4,5.2,4.1,5.2c2.7,0,4.1-1.7,4.1-5.2l2.7-92.6c0-3.4-4.1-5.2-6.9-5.2c-2.7,0-6.9,1.7-6.9,5.2
		l2.7,92.4V107.9z"/>
	<path d="M270.9,129.3c-1.9-1.8-4.1-2.7-6.7-2.7c-2.5,0-4.6,0.9-6.5,2.7c-1.8,1.9-2.7,4.1-2.7,6.7c0,2.5,0.9,4.6,2.7,6.5
		c1.9,1.8,4,2.7,6.5,2.7c2.6,0,4.8-0.9,6.7-2.7c1.8-1.9,2.7-4,2.7-6.5C273.6,133.4,272.7,131.1,270.9,129.3z"/>
	<path d="M50.7,22.6c-11.3,0-21,4-28.9,11.9c-8,8-11.9,17.6-11.9,28.9v40.8c0,11.3,4,21,11.9,28.9c7.9,8,17.6,11.9,28.9,11.9
		c11.3,0,21-4,28.9-11.9c7.9-8,11.9-17.6,11.9-28.9V63.4c0-11.3-4-21-11.9-28.9C71.7,26.5,62.1,22.6,50.7,22.6z M82,104.3
		c0,9-1.8,15.4-8.3,21.7c-6.3,6.4-14,9.6-23,9.6c-9,0-16.7-3.2-23-9.6c-6.4-6.3-8.3-12.6-8.3-21.7V63.4c0-9,1.8-15.4,8.3-21.7
		c6.3-6.4,14-9.6,23-9.6c9,0,16.7,3.2,23,9.6c6.4,6.3,8.3,12.6,8.3,21.7V104.3z"/>
	<path d="M172.5,44.5C172.5,44.5,172.5,44.4,172.5,44.5c-0.2-0.3-0.4-0.5-0.5-0.7c0,0,0,0,0,0c-0.9-1-2.3-1.8-3.8-1.8
		c-1.5,0-2.8,0.6-3.7,1.6c-0.1,0-0.1,0.1-0.2,0.1l-34.5,36.1c-1.2,1.3-1.9,2-3.5,2c-1.6,0-2.4-0.8-3.5-2l-29-30.6
		c1.4,3.4,2.9,10.3,2.4,16.4L122.6,94c1.2,1.4,1.9,2.3,3.7,2.3c1.8,0,2.4-0.9,3.6-2.3l26.3-28.1c1.7-1.8,2.9-2.6,3.9-2.8
		c1.3-0.2,2.9,0.5,2.9,3.3v17.8v56.1c0,0.2,0.1,0.5,0.1,0.7c0.3,2.2,2.4,4,4.9,4c2.8,0,5-2.1,5-4.6c0,0,0,0,0,0c0,0,0,0,0,0V46.3
		c0-0.1,0-0.1,0-0.1C173,45.6,172.8,45,172.5,44.5z"/>
</g>
</svg>
